<svg xmlns="http://www.w3.org/2000/svg" width="276.956" height="388.875" viewBox="0 0 276.956 388.875"><defs><style>.a{fill:#211715;}.b{fill:#bdbdbd;}</style></defs><path class="a" d="M80.343,152.978c-1.893-7.159-5.185-13.842-5.18-21.391a38.4,38.4,0,0,1,4.529-17.7c1.438-2.732-2.7-5.161-4.144-2.423a43.8,43.8,0,0,0-5.181,19.669,39.379,39.379,0,0,0,1.691,11.636c1.136,3.855,2.629,7.595,3.657,11.484.789,2.984,5.42,1.718,4.628-1.276Z"/><path class="a" d="M83.8,83.976c12.776-11.462,24.593-23.962,36.829-35.987l-4.1-1.7c-.019.155-.041.319-.121.814s-.167.992-.257,1.487c-.2,1.085-.412,2.167-.621,3.249-.421,2.178-.825,4.359-1.087,6.562a11.838,11.838,0,0,0,.157,4.973,3.6,3.6,0,0,0,4.348,2.517,47.568,47.568,0,0,0,7.718-2.688,80.365,80.365,0,0,0,7.836-3.731,86.769,86.769,0,0,0,14.165-9.781,91.2,91.2,0,0,0,13.394-14,2.48,2.48,0,0,0,0-3.395,2.416,2.416,0,0,0-3.394,0,87.091,87.091,0,0,1-23.09,21,72.267,72.267,0,0,1-13.749,6.648c-1.2.423-2.405.819-3.625,1.171a2.414,2.414,0,0,0-.531.149c.4-.246.478,0,.243-.048a2.252,2.252,0,0,1,1.087.456c-.324-.23.381.449.092.1.305.364.1.214,0-.2-.087-.336.025.617.006.012,0-.133-.016-.266-.021-.4a17.213,17.213,0,0,1,.122-2.38c.42-3.929,1.619-8.343,2.132-12.515.267-2.165-2.743-3.028-4.1-1.7C105,56.62,93.18,69.12,80.4,80.582c-2.3,2.067,1.1,5.452,3.394,3.394Z"/><path class="a" d="M153.841,39.7a31.538,31.538,0,0,0,3.31,7.863,86.613,86.613,0,0,0,5.882,9.09A121.925,121.925,0,0,0,178.27,74.15a43.165,43.165,0,0,0,7.962,6.18c2.693,1.522,5.115-2.623,2.423-4.145a32.33,32.33,0,0,1-6.263-4.758,100.941,100.941,0,0,1-7.4-7.544,108.532,108.532,0,0,1-13.016-17.541,48.9,48.9,0,0,1-2.284-4.372c-.064-.143-.128-.285-.19-.429-.3-.69.161.419-.109-.262-.132-.332-.26-.665-.378-1a17.963,17.963,0,0,1-.543-1.849c-.7-3.006-5.333-1.734-4.629,1.276Z"/><path class="a" d="M203.43,81.017c1.1-3.347,1.142-7.107,1.12-10.6a85.088,85.088,0,0,0-.821-11.059,86.224,86.224,0,0,0-7.006-24.253,57.394,57.394,0,0,0-13.146-18.285A62.284,62.284,0,0,0,168.62,6.105,59.611,59.611,0,0,0,149.686.833a89.454,89.454,0,0,0-25.451.153C109.935,3.359,96,10.757,86.484,21.78,76.065,33.853,71.715,49.53,71.421,65.244a50.372,50.372,0,0,0,.262,6.417,2.471,2.471,0,0,0,2.4,2.4,2.415,2.415,0,0,0,2.4-2.4A68.35,68.35,0,0,1,77.89,50.139a58.257,58.257,0,0,1,8.647-20.615c7.648-11.208,19.819-19.05,32.841-22.574C127.4,4.78,135.6,4.59,143.852,5.1A64.978,64.978,0,0,1,162.74,8.76a49.836,49.836,0,0,1,13.991,8.4A56.042,56.042,0,0,1,189.839,32.2,75.957,75.957,0,0,1,198,54.312a74.04,74.04,0,0,1,1.584,21.133,18.494,18.494,0,0,1-.786,4.3c-.964,2.942,3.669,4.2,4.629,1.276Z"/><path class="a" d="M124.84,135.952c3.583,3.3,9.089,4.17,13.763,4.167s10.181-.871,13.767-4.167c2.279-2.094-1.122-5.482-3.394-3.394-.095.087-.191.173-.29.255-.322.266.33-.224.065-.054-.281.179-.551.371-.841.538a10.045,10.045,0,0,1-1.932.887,24.589,24.589,0,0,1-14.621.046,9.859,9.859,0,0,1-2.06-.933c-.265-.153-.516-.325-.773-.491-.473-.307.4.323,0,.007-.1-.081-.195-.168-.29-.255-2.271-2.087-5.674,1.3-3.394,3.394Z"/><path class="a" d="M135.821,103.419c.7,2.656,1.254,5.345,1.791,8.037.063.315.122.63.187.944.017.082.064.429.017.044-.051-.415,0,.038,0,.131s0,.2,0,.3c.015.487.067-.405.01-.151-.038.122-.022.089.047-.1a.969.969,0,0,1,.284-.447c.132-.132.4-.315.079-.108.351-.225.092-.032-.063.015a2.188,2.188,0,0,0-.425.1c.1-.068.494-.02.164-.039-.122-.007-.246-.005-.367-.008-.09,0-.435-.048-.022.007s.038,0-.06-.018c-.183-.032-.365-.068-.549-.093a2.644,2.644,0,0,0-1.849.242,2.443,2.443,0,0,0-1.1,1.434c-.257,1.128.346,2.77,1.676,2.952a7.875,7.875,0,0,0,4.169-.078,3.988,3.988,0,0,0,2.58-2.392,4.508,4.508,0,0,0,.184-2.063c-.206-1.678-.607-3.344-.957-5-.353-1.67-.734-3.333-1.168-4.984a2.4,2.4,0,0,0-4.628,1.276Z"/><path class="a" d="M164.419,160.715c15.376-6.514,23.95-23.452,27.149-38.986a96.813,96.813,0,0,0,1.9-19.324c.007-3.089-4.793-3.093-4.8,0-.037,17.39-4.425,36.8-17.946,48.676a29.3,29.3,0,0,1-4.037,3.028A32.157,32.157,0,0,1,162,156.57a2.414,2.414,0,0,0-.861,3.284,2.465,2.465,0,0,0,3.284.861Z"/><path class="a" d="M83.026,106.093c.392,19.3,8.078,40.228,24.544,51.433a43.477,43.477,0,0,0,16.33,6.689,2.464,2.464,0,0,0,2.952-1.676,2.423,2.423,0,0,0-1.676-2.953,40.663,40.663,0,0,1-23.813-14.152c-5.891-7.046-9.62-15.791-11.7-24.677a69.793,69.793,0,0,1-1.84-14.664c-.063-3.085-4.863-3.095-4.8,0Z"/><path class="a" d="M109.246,95.787c-.9,2.928-.313,9.663,5.225,10.236,7.32-.044,7.709-8.186,5.245-12.015C117.7,90.873,111.767,89.569,109.246,95.787Z"/><path class="a" d="M166.567,95.792c.9,2.932.314,9.676-5.224,10.25-7.32-.045-7.71-8.2-5.246-12.032C158.114,90.872,164.047,89.567,166.567,95.792Z"/><path class="a" d="M83.8,80.582a9.481,9.481,0,0,0-10.717-1.677c-3.817,1.853-5.113,5.787-5.4,9.737-.586,8.019,1.479,16.974,6.48,23.388,2.805,3.6,7.014,6.152,11.679,6.024,3.082-.085,3.095-4.885,0-4.8-8.108.222-11.785-9.966-12.966-16.445a31.708,31.708,0,0,1-.482-6.129,13.031,13.031,0,0,1,.808-5.421,4.545,4.545,0,0,1,7.2-1.283c2.258,2.1,5.66-1.284,3.394-3.394Z"/><path class="a" d="M196.5,83.976a4.545,4.545,0,0,1,7.205,1.283,13.145,13.145,0,0,1,.808,5.421,31.866,31.866,0,0,1-.482,6.129c-1.18,6.479-4.858,16.667-12.966,16.445-3.09-.085-3.087,4.715,0,4.8,8.761.24,14.019-7.98,16.427-15.358a37.252,37.252,0,0,0,1.812-12.469c-.11-4.046-.817-8.026-4.261-10.568a9.388,9.388,0,0,0-11.937.923c-2.265,2.11,1.135,5.5,3.394,3.394Z"/><path class="a" d="M208.074,225.929c.518,7.089.33,14.71-2.652,21.294a2.471,2.471,0,0,0,.861,3.283,2.417,2.417,0,0,0,3.283-.861c3.356-7.408,3.894-15.7,3.308-23.716a2.46,2.46,0,0,0-2.4-2.4,2.42,2.42,0,0,0-2.4,2.4Z"/><path class="a" d="M40.624,295.33a79.087,79.087,0,0,0-10.777,7.759,2.412,2.412,0,0,0,0,3.394,2.461,2.461,0,0,0,3.394,0q1.188-1.012,2.415-1.98l.3-.233c.275-.214-.315.239-.036.029.2-.152.4-.306.6-.457q.645-.481,1.3-.95,2.54-1.818,5.226-3.418a2.4,2.4,0,1,0-2.423-4.144Z"/><path class="a" d="M234.184,348.693c2.223-.536,4.491-.9,6.7-1.5a24.7,24.7,0,0,0,6.441-2.869c2.731-1.677,5.253-3.67,7.927-5.436,2.576-1.7,5.194-3.339,7.708-5.131,5.325-3.8,10.214-8.3,12.49-14.6,2.644-7.311,1.225-15.6.156-23.081a118.492,118.492,0,0,0-5.423-22.7c-2.58-7.305-6.095-14.238-9.385-21.237-3.332-7.088-6.021-14.372-8.673-21.736-2.581-7.167-4.834-14.47-7.585-21.573-2.515-6.494-5.679-12.871-10.647-17.859-5.254-5.274-12.19-8.571-18.62-12.15q-2.188-1.218-4.4-2.4c-2.723-1.457-5.15,2.686-2.422,4.144,3.178,1.7,6.276,3.532,9.427,5.277a83.052,83.052,0,0,1,8.874,5.3c5.416,3.943,9.041,9.508,11.747,15.552,2.849,6.364,4.793,13.133,7.112,19.7,2.593,7.346,5.106,14.771,8.2,21.923,2.925,6.753,6.331,13.287,9.257,20.04a107.35,107.35,0,0,1,6.589,21.356q1.1,5.441,1.739,10.961a64.735,64.735,0,0,1,.677,11,19.81,19.81,0,0,1-2.864,9.415,27.016,27.016,0,0,1-5.779,6.3,83.519,83.519,0,0,1-8,5.642c-2.878,1.873-5.653,3.866-8.485,5.8a25.2,25.2,0,0,1-6.687,3.533c-2.4.732-4.915,1.1-7.356,1.685-3,.724-1.73,5.354,1.276,4.629Z"/><path class="a" d="M64.049,225.929c-.585,8.02-.048,16.3,3.306,23.712a2.418,2.418,0,0,0,3.284.861,2.458,2.458,0,0,0,.861-3.283c-2.981-6.583-3.168-14.2-2.651-21.29a2.421,2.421,0,0,0-2.4-2.4,2.447,2.447,0,0,0-2.4,2.4Z"/><path class="a" d="M43.231,343.878c-2.126-.49-4.3-.828-6.393-1.445a20.769,20.769,0,0,1-5.58-2.732c-2.594-1.669-5.038-3.56-7.617-5.254-2.48-1.629-4.992-3.211-7.4-4.94-4.78-3.426-9.177-7.626-10.711-13.491a31.2,31.2,0,0,1-.467-10.632c.31-3.7.749-7.383,1.355-11.044A112.757,112.757,0,0,1,12.054,272.8c2.636-6.953,6.078-13.567,9.19-20.31,3.164-6.856,5.713-13.929,8.268-21.027,2.483-6.9,4.672-13.916,7.281-20.768,2.564-6.737,5.955-13.295,11.508-18.053a52.128,52.128,0,0,1,9.595-6.179c3.552-1.887,7-3.968,10.55-5.865,2.725-1.458.3-5.6-2.423-4.145-3.169,1.695-6.258,3.522-9.4,5.262a79.981,79.981,0,0,0-9.218,5.555,41.638,41.638,0,0,0-12.871,16.461c-3.07,6.691-5.166,13.784-7.606,20.716-2.6,7.393-5.086,14.906-8.234,22.088-3.089,7.043-6.652,13.869-9.642,20.957a111.092,111.092,0,0,0-6.69,22.344c-.747,3.9-1.314,7.843-1.742,11.794A53.878,53.878,0,0,0,.153,313a24.58,24.58,0,0,0,3.318,10.376,30.006,30.006,0,0,0,6.064,6.945c4.761,4.1,10.286,7.122,15.367,10.781a46.018,46.018,0,0,0,7.527,4.76,27.813,27.813,0,0,0,5.988,1.884c1.181.247,2.362.489,3.538.76,3.006.693,4.29-3.934,1.276-4.628Z"/><path class="a" d="M233.163,298.889q2.955,1.7,5.748,3.662.675.476,1.341.966c.222.164.442.328.662.494l.329.25c.175.133.185.143.006,0q1.385,1.08,2.721,2.219a2.4,2.4,0,0,0,3.394-3.394,78.758,78.758,0,0,0-11.778-8.345,2.4,2.4,0,0,0-2.423,4.145Z"/><path class="a" d="M87.608,173.616c2.117,3.743,6.259,6.293,9.949,8.253a65.664,65.664,0,0,0,9.894,4.111,75.3,75.3,0,0,0,14.569,3.031,142.429,142.429,0,0,0,30.385.382,82.216,82.216,0,0,0,15.112-2.411,47.038,47.038,0,0,0,10.028-4.249c4.084-2.28,8.607-5.349,10.341-9.894a2.418,2.418,0,0,0-1.676-2.952,2.453,2.453,0,0,0-2.952,1.676c.1-.259-.209.413-.3.564a8.5,8.5,0,0,1-.61.909,15.921,15.921,0,0,1-1.922,1.941,30.548,30.548,0,0,1-5.306,3.611,42.14,42.14,0,0,1-8.62,3.69,67.023,67.023,0,0,1-12.082,2.122,146.034,146.034,0,0,1-28.823.208,78.509,78.509,0,0,1-16.06-2.99,58.27,58.27,0,0,1-7.126-2.684c-3.73-1.734-8.635-4.161-10.659-7.741-1.521-2.689-5.669-.272-4.145,2.423Z"/><path class="a" d="M138.1,245.584q-41.394.3-82.788.52l-6.34.029c-1.908.008-4.083-.248-5.883.453-2.887,1.125-4.133,3.774-4.12,6.731q.009,2.028.023,4.056.081,11.678.232,23.355.367,31.123.91,62.246.243,13.923.545,27.844.118,5.3.262,10.59c.087,3.088,1.13,5.85,4.246,7.023,1.738.654,3.8.38,5.623.363,25.287-.227,50.581-.024,75.868.06,28.8.1,57.608-.168,86.412-.116,4.239.008,8.478.02,12.716.06,2.048.019,4.2.274,6.075-.748,2.7-1.473,3.307-4.1,3.386-6.931.219-7.936.382-15.873.536-23.809q.606-31.2,1-62.4.181-13.722.323-27.446.051-5.229.089-10.459c.009-1.33.027-2.659.022-3.989a6.6,6.6,0,0,0-4.745-6.651c-1.772-.486-3.883-.226-5.711-.234q-3.23-.013-6.458-.03-8.047-.039-16.1-.086-21.424-.123-42.849-.268-11.637-.08-23.273-.163c-3.089-.022-3.093,4.778,0,4.8q40.819.3,81.64.514l6.1.029c1.643.007,3.355-.121,4.993.02,1.818.156,1.6,1.921,1.592,3.307q-.011,2.033-.026,4.064-.085,11.635-.235,23.272-.363,30.375-.889,60.748-.237,13.678-.53,27.357-.12,5.368-.262,10.739c-.034,1.268.276,3.289-1.4,3.59a12.842,12.842,0,0,1-2.286-.016q-1.248-.013-2.495-.023c-24.926-.193-49.857-.014-74.782.069-28.262.093-56.525-.157-84.788-.118-4.427.006-8.853.016-13.28.053a22.757,22.757,0,0,1-4.366.019c-1.742-.349-1.348-2.644-1.384-3.973-.214-7.963-.376-15.928-.529-23.893q-.586-30.458-.969-60.917-.177-13.394-.317-26.786-.052-5.252-.093-10.5-.014-2-.024-4c-.008-1.583.005-2.967,1.952-2.99,23.193-.284,46.4-.246,69.589-.4q11.394-.077,22.787-.159C141.189,250.362,141.2,245.562,138.1,245.584Z"/><path class="b" d="M60.414,369.408c15.138-.1,46.44,0,77.688.109,31.248-.107,62.55-.2,77.688-.109"/><path class="a" d="M60.414,371.808c19.134-.119,38.27-.017,57.4.042,23.359.072,46.716-.038,70.075-.072,9.3-.014,18.6-.028,27.9.03,3.089.019,3.092-4.781,0-4.8-19.134-.119-38.27-.017-57.4.042-23.359.072-46.716-.038-70.075-.072-9.3-.014-18.6-.028-27.9.03-3.087.019-3.094,4.819,0,4.8Z"/><path class="a" d="M138.1,300.845c-2.884.027-5.768.065-8.652.068a2.437,2.437,0,0,0-2.4,2.4q-.018,4.539-.013,9.076c0,1.777.006,3.554.022,5.332,0,.638,0,1.28.026,1.917a2.531,2.531,0,0,0,2.707,2.642c5.184,0,10.369-.036,15.553-.011a5,5,0,0,0,2.579-.3c1.174-.687,1.192-1.93,1.209-3.12.023-1.664.027-3.328.031-4.992q.012-5.269-.01-10.541a2.436,2.436,0,0,0-2.4-2.4c-2.884,0-5.768-.041-8.652-.068a2.4,2.4,0,0,0,0,4.8c2.884.027,5.768.065,8.652.068l-2.4-2.4c.022,5.524.1,11.057-.041,16.579l.328-1.211h0l2.073-1.189c-.951-.087-1.933-.027-2.886-.027-1.908,0-3.817.02-5.725.02-1.863,0-3.727-.018-5.59-.019-1,0-2.026-.065-3.021.026l2.073,1.189h0l.328,1.211c-.138-5.522-.063-11.055-.041-16.579l-2.4,2.4c2.884,0,5.768-.041,8.652-.068a2.4,2.4,0,1,0,0-4.8Z"/><path class="a" d="M95.692,140.348a31.787,31.787,0,0,0-8.742,5.024c-2.206,1.69-4.338,3.685-6.842,4.936a39.889,39.889,0,0,1-5.141,1.749,23.357,23.357,0,0,0-4.621,2.114,20.268,20.268,0,0,0-6.907,6.778C55.488,174.233,70.57,187,80.946,192.84c6.2,3.49,13.117,6.3,20.264,6.867a2.421,2.421,0,0,0,2.4-2.4,2.448,2.448,0,0,0-2.4-2.4c-5.415-.432-10.811-2.547-15.631-5.022A51.315,51.315,0,0,1,71.781,180c-3.837-4.018-7.415-9.954-4.788-15.541a14.532,14.532,0,0,1,5.462-5.952c2.636-1.662,5.592-2.22,8.452-3.349,5.97-2.355,9.94-8.029,16.061-10.184a2.46,2.46,0,0,0,1.676-2.952,2.421,2.421,0,0,0-2.952-1.676Z"/><path class="a" d="M92.405,174.958c4.927-1.578,9.9-3.019,14.849-4.515a10.415,10.415,0,0,0,6.1-4.44c1.38-2.3,1.534-4.964,1.973-7.538a2.472,2.472,0,0,0-1.676-2.953,2.42,2.42,0,0,0-2.953,1.677c-.2,1.2-.329,2.406-.558,3.6a13.851,13.851,0,0,1-.4,1.63c-.028.087-.362.893-.19.532-.1.215-.215.427-.338.631a4.993,4.993,0,0,1-2.355,1.943,12.686,12.686,0,0,1-1.361.438c-4.793,1.434-9.6,2.842-14.361,4.369-2.93.939-1.677,5.575,1.276,4.628Z"/><path class="a" d="M185.063,170.33c-4.642-1.488-9.319-2.864-13.989-4.258a7.392,7.392,0,0,1-3.758-2.008c-.329-.377.023.078-.218-.3a7.644,7.644,0,0,1-.463-.842c.174.374-.087-.234-.115-.314-.1-.3-.191-.611-.269-.921a32.794,32.794,0,0,1-.577-3.367,2.414,2.414,0,0,0-2.952-1.676,2.463,2.463,0,0,0-1.677,2.952c.384,2.685.826,5.294,2.563,7.478a10.95,10.95,0,0,0,5.621,3.459c4.858,1.457,9.727,2.88,14.558,4.428,2.949.945,4.211-3.688,1.276-4.628Z"/><path class="a" d="M179.668,145.905c4.975,1.762,8.447,5.908,12.785,8.7,2.532,1.629,5.491,2.133,8.258,3.2a16.986,16.986,0,0,1,6.212,4.19,11.462,11.462,0,0,1,3.132,6.15c.4,2.925-.706,5.784-2.2,8.242-3.118,5.146-8.122,8.771-13.324,11.61-3.3,1.8-6.732,3.459-10.181,4.966a30.483,30.483,0,0,1-9.371,2.792,2.462,2.462,0,0,0-2.4,2.4,2.418,2.418,0,0,0,2.4,2.4c7.107-.6,13.722-4.227,19.985-7.376,6.066-3.049,11.837-7.024,15.848-12.584,3.981-5.518,5.606-12.5,2.028-18.645a20.053,20.053,0,0,0-6.375-6.538c-2.809-1.848-5.948-2.614-9.074-3.72-2.71-.958-4.833-2.956-7.039-4.724a32.579,32.579,0,0,0-9.412-5.693,2.423,2.423,0,0,0-2.952,1.676,2.447,2.447,0,0,0,1.676,2.952Z"/></svg>