<svg xmlns="http://www.w3.org/2000/svg" width="317.041" height="397.72" viewBox="0 0 317.041 397.72"><defs><style>.a{fill:#211715;}.b{fill:none;}</style></defs><path class="a" d="M202.181,169.068c17.436-5.8,27.527-24.08,31.314-41.012a98.446,98.446,0,0,0,2.254-21.258c.006-3.089-4.794-3.093-4.8,0-.04,18.9-5.187,40.094-20.537,52.393a37.268,37.268,0,0,1-4.628,3.082,24.527,24.527,0,0,1-4.879,2.166c-2.917.97-1.667,5.607,1.276,4.629Z"/><path class="a" d="M120.165,110.665c.41,20.252,8.5,42.269,25.855,53.954a45.507,45.507,0,0,0,16.923,6.884,2.463,2.463,0,0,0,2.952-1.676,2.421,2.421,0,0,0-1.676-2.952,42.734,42.734,0,0,1-24.986-14.825c-6.186-7.383-10.114-16.543-12.307-25.859a73.361,73.361,0,0,1-1.961-15.526c-.062-3.084-4.862-3.1-4.8,0Z"/><path class="a" d="M120.776,84a9.8,9.8,0,0,0-11.161-1.711c-3.907,1.978-5.241,5.967-5.542,10.07-.616,8.386,1.536,17.8,6.79,24.494,2.922,3.726,7.29,6.382,12.135,6.244,3.082-.088,3.095-4.888,0-4.8-8.564.243-12.466-10.5-13.711-17.343a33.555,33.555,0,0,1-.506-6.562,13.663,13.663,0,0,1,.861-5.629,4.886,4.886,0,0,1,7.739-1.369c2.256,2.108,5.657-1.279,3.395-3.394Z"/><path class="a" d="M238.965,87.389a4.886,4.886,0,0,1,7.739,1.369,13.637,13.637,0,0,1,.861,5.629,33.477,33.477,0,0,1-.5,6.562c-1.246,6.848-5.148,17.586-13.711,17.343-3.09-.088-3.088,4.712,0,4.8,9.058.257,14.519-8.214,17.052-15.833a38.98,38.98,0,0,0,1.959-13.1c-.1-4.232-.805-8.464-4.419-11.123a9.732,9.732,0,0,0-12.37.957c-2.262,2.114,1.138,5.5,3.394,3.394Z"/><path class="a" d="M189.059,42.281c-6.018,2.969-11.813,6.369-17.807,9.385-.58.292-1.161.579-1.748.855-.252.119-.5.233-.758.349-.625.288.08-.016-.252.11s-.691.2-1,.342c-.462.219.461-.024.241-.027a1.99,1.99,0,0,1,1.338.522c-.159-.175-.153-.162.016.036-.253-.678-.736-1.321-1.023-2-.445-1.05-.818-2.136-1.172-3.218a29.16,29.16,0,0,1-1.551-6.119,2.434,2.434,0,0,0-4.1-1.7C149.9,50.948,138.822,61.335,128.231,72.258q-5.56,5.735-11.015,11.572c-2.112,2.251,1.275,5.653,3.394,3.394,11-11.721,22.246-23.173,34.092-34.037q4.935-4.525,9.941-8.973l-4.1-1.7A39.229,39.229,0,0,0,163.83,54.06c.974,2.264,2.326,4.633,5.153,3.832a32.089,32.089,0,0,0,5.664-2.576c2.662-1.367,5.291-2.8,7.925-4.217,2.952-1.59,5.9-3.19,8.91-4.674a2.424,2.424,0,0,0,.861-3.283,2.449,2.449,0,0,0-3.284-.861Z"/><path class="a" d="M201.392,52.176a73.622,73.622,0,0,1,33.424,34.967A2.417,2.417,0,0,0,238.1,88a2.456,2.456,0,0,0,.861-3.283,78.045,78.045,0,0,0-25.452-30.789,74.837,74.837,0,0,0-9.693-5.9c-2.747-1.4-5.178,2.739-2.423,4.144Z"/><path class="a" d="M207.624,20.145c4.992.889,9.622,3.632,13.719,6.5a48.516,48.516,0,0,1,11.866,11.9,37,37,0,0,1,5.378,10.984,85.4,85.4,0,0,1,2.943,14.93,112.027,112.027,0,0,1,.612,18.257c-.157,3.087,4.643,3.078,4.8,0A105.006,105.006,0,0,0,243.5,49.244a41.4,41.4,0,0,0-5.539-12.237,55.4,55.4,0,0,0-12.3-13.109C220.814,20.2,215,16.6,208.9,15.517a2.468,2.468,0,0,0-2.952,1.676,2.42,2.42,0,0,0,1.676,2.952Z"/><path class="a" d="M139.064,12.87a64.921,64.921,0,0,0-20.995,18.994A64.1,64.1,0,0,0,107.5,58.123,60.633,60.633,0,0,0,106.89,75.6a2.475,2.475,0,0,0,2.4,2.4,2.414,2.414,0,0,0,2.4-2.4,59.925,59.925,0,0,1,17.715-49.627,60.857,60.857,0,0,1,12.081-8.957c2.685-1.528.269-5.676-2.422-4.144Z"/><path class="a" d="M200.174,13.027a31.347,31.347,0,0,0-13.133-9.8,49.655,49.655,0,0,0-16.36-3.1,74.34,74.34,0,0,0-19.158,1.215,56.833,56.833,0,0,0-17.394,6.986A40.635,40.635,0,0,0,121.4,19.848c-1.734,2.567,2.423,4.972,4.145,2.423a34.666,34.666,0,0,1,9.625-8.926,52.558,52.558,0,0,1,15.605-6.893,64.685,64.685,0,0,1,17.65-1.6,51.908,51.908,0,0,1,15.146,2.2,27.371,27.371,0,0,1,13.209,9.367,2.412,2.412,0,0,0,3.394,0,2.462,2.462,0,0,0,0-3.394Z"/><path class="a" d="M175.525,107.174c.733,2.784,1.315,5.6,1.878,8.427.066.33.129.661.2.99.02.1.021.414.019.062,0-.406,0,.061,0,.152s0,.208,0,.312c.013.5.063-.391.006-.127-.038.123-.024.093.044-.092a.921.921,0,0,1,.273-.431l.26-.2-.2.109q.325-.118.091-.035a1.912,1.912,0,0,1-.185.062,2.385,2.385,0,0,0-.445.106c.075-.082.491-.019.14-.037-.127-.007-.257-.006-.384-.009-.087,0-.444-.048-.039,0s.018,0-.078-.02c-.192-.035-.383-.072-.576-.1a2.655,2.655,0,0,0-1.849.242,2.448,2.448,0,0,0-1.1,1.435c-.257,1.128.346,2.77,1.676,2.952a8.12,8.12,0,0,0,4.309-.082,4.064,4.064,0,0,0,2.625-2.427,4.655,4.655,0,0,0,.189-2.132c-.216-1.75-.635-3.486-1-5.21-.37-1.751-.769-3.5-1.224-5.225a2.4,2.4,0,1,0-4.629,1.276Z"/><path class="a" d="M148.318,94.127c-.944,2.977-.329,9.824,5.479,10.406,7.676-.044,8.085-8.322,5.5-12.214C157.182,89.132,150.961,87.806,148.318,94.127Z"/><path class="a" d="M209.355,94.133c.943,2.98.329,9.836-5.479,10.419-7.676-.045-8.085-8.334-5.5-12.231C200.49,89.131,206.711,87.8,209.355,94.133Z"/><path class="a" d="M165.468,140.2c3.5,3.221,8.882,4.08,13.454,4.077s9.95-.855,13.456-4.077c2.28-2.095-1.122-5.483-3.394-3.394-.092.084-.185.167-.282.247-.318.264.34-.23.076-.062s-.537.362-.819.525a9.49,9.49,0,0,1-1.868.857,23.895,23.895,0,0,1-14.214.045c-.249-.085-.5-.175-.744-.273.286.114-.106-.045-.206-.092-.354-.167-.7-.341-1.042-.537-.257-.149-.5-.333-.753-.479-.47-.266.391.319.012.016-.1-.078-.19-.163-.282-.247-2.271-2.088-5.674,1.3-3.394,3.394Z"/><path class="a" d="M200.122,113.005c8.333.243,17.785.053,23.044-7.5,3.972-5.707,4.8-15.765-.736-20.8a8.288,8.288,0,0,0-3.174-1.312q-1.71-.521-3.452-.922a56.061,56.061,0,0,0-6.829-1.111,50.365,50.365,0,0,0-13.879.537c-3.906.69-8.693,1.445-10.973,5.045a15.412,15.412,0,0,0-2.074,8.979,19.174,19.174,0,0,0,5.5,12.434c3.353,3.146,8.067,4.483,12.572,4.655,3.089.119,3.084-4.681,0-4.8-3.567-.136-7.523-1.22-9.924-4.026a14.442,14.442,0,0,1-3.315-10.7,12.637,12.637,0,0,1,.836-3.1c.731-1.634,1.309-1.939,2.932-2.454A43.968,43.968,0,0,1,204.487,85.9,49.158,49.158,0,0,1,220.1,88.712l-1.059-.618c3.821,3.919,2.941,11.154-.208,15.257-4.277,5.571-12.458,5.036-18.706,4.854C197.032,108.116,197.035,112.916,200.122,113.005Z"/><path class="a" d="M135.391,88.712A47.659,47.659,0,0,1,158,86.338a44.446,44.446,0,0,1,5.748,1.255,15.244,15.244,0,0,1,2.6.839,4.626,4.626,0,0,1,.713.686,10.169,10.169,0,0,1,1.611,6.041,14.829,14.829,0,0,1-3.211,8.821c-1.935,2.4-5,3.553-7.959,4.035a43.216,43.216,0,0,1-10.546.112c-3.166-.29-6.6-1.179-8.994-3.386-4.239-3.9-5.791-12.257-1.51-16.647,2.158-2.213-1.233-5.61-3.394-3.394-5.229,5.362-4.9,14.679-.829,20.666,5.111,7.525,14.456,7.908,22.71,7.652a20.7,20.7,0,0,0,11.241-3.262A17.8,17.8,0,0,0,172.852,99.6a17.3,17.3,0,0,0-.238-9.916,10.9,10.9,0,0,0-2.519-4.353c-1.484-1.436-3.573-1.951-5.509-2.488a51.494,51.494,0,0,0-30.471,1.242,2.458,2.458,0,0,0-1.676,2.952,2.421,2.421,0,0,0,2.952,1.677Z"/><path class="a" d="M173.679,96.357c.5-.25-.543.192.006-.01.181-.067.366-.125.552-.177.392-.109.79-.185,1.191-.256.178-.031.52-.017-.163.017.093,0,.187-.022.279-.033.238-.026.477-.046.716-.062.492-.034.985-.048,1.479-.045q.707,0,1.412.057.363.027.725.067c.175.02.53.119-.143-.023.09.019.185.026.276.041.434.068.866.153,1.291.264.174.046.347.095.519.151.2.064.908.362.091.009a2.63,2.63,0,0,0,1.85.241,2.446,2.446,0,0,0,1.434-1.1c.547-1.036.369-2.752-.861-3.284a16.8,16.8,0,0,0-6.594-1.221,14.3,14.3,0,0,0-6.483,1.221A2.416,2.416,0,0,0,170.4,95.5a2.46,2.46,0,0,0,3.284.861Z"/><path class="a" d="M227.914,93.567c.089-.04.178-.078.268-.117l-.574.242a24.765,24.765,0,0,1,4.905-1.549,2.4,2.4,0,0,0,.573-4.387,2.683,2.683,0,0,0-1.849-.242,26.429,26.429,0,0,0-5.746,1.909,2.4,2.4,0,0,0-1.1,1.434,2.452,2.452,0,0,0,.242,1.849,2.417,2.417,0,0,0,1.434,1.1l.638.086a2.389,2.389,0,0,0,1.212-.328Z"/><path class="a" d="M129.391,89.423a26.429,26.429,0,0,0-5.746-1.909,2.578,2.578,0,0,0-1.849.242,2.4,2.4,0,0,0-.861,3.284,2.368,2.368,0,0,0,1.434,1.1,24.756,24.756,0,0,1,4.9,1.549l-.573-.242.268.117a1.777,1.777,0,0,0,.892.285,1.812,1.812,0,0,0,.957-.043,2.45,2.45,0,0,0,1.435-1.1,2.422,2.422,0,0,0,.242-1.849,2.333,2.333,0,0,0-1.1-1.434Z"/><path class="a" d="M146.2,163.488c-.069,4.035-.338,8.072-.774,12.083a2.406,2.406,0,0,0,2.4,2.4,2.47,2.47,0,0,0,2.4-2.4c.436-4.011.705-8.048.774-12.083a2.4,2.4,0,1,0-4.8,0Z"/><path class="a" d="M203.939,164.747a109.6,109.6,0,0,0,.76,10.969,2.462,2.462,0,0,0,2.4,2.4c1.174-.053,2.559-1.065,2.4-2.4a109.6,109.6,0,0,1-.76-10.969,2.4,2.4,0,0,0-4.8,0Z"/><path class="b" d="M147.828,208.919a106.5,106.5,0,0,0,26.8,3.78c9.429.023,20.544-1.845,30.454-4.662"/><path class="a" d="M262.735,395.4q0-18.465,0-36.931c0-3.089-4.8-3.094-4.8,0q0,18.465,0,36.931c0,3.089,4.8,3.094,4.8,0Z"/><path class="a" d="M99.187,395.4q0-16.022,0-32.042c0-3.089-4.8-3.094-4.8,0q0,16.021,0,32.042c0,3.089,4.8,3.094,4.8,0Z"/><path class="a" d="M175.467,196.346c.006,16.426.29,32.855.462,49.279q.123,11.663.251,23.324c.034,3.087,4.834,3.095,4.8,0q-.364-33.1-.67-66.2c-.018-2.134-.042-4.268-.043-6.4,0-3.088-4.8-3.093-4.8,0Z"/><path class="a" d="M176.034,346.568c0,12.961.092,25.922.128,38.883q.013,4.746.018,9.492c0,3.089,4.8,3.094,4.8,0,0-13.983-.08-27.966-.128-41.948-.007-2.142-.018-4.284-.018-6.427,0-3.088-4.8-3.093-4.8,0Z"/><path class="a" d="M217.433,189.312q14.69,5.967,28.893,13.035c8.593,4.272,16.99,8.9,25.475,13.381,4.042,2.133,7.576,4.732,9.979,8.706,1.6,2.639,5.749.23,4.145-2.423A27.177,27.177,0,0,0,276,212.552c-3.781-2.17-7.682-4.16-11.527-6.214-9.191-4.911-18.478-9.641-27.953-13.983q-8.814-4.038-17.807-7.671a2.415,2.415,0,0,0-2.952,1.676,2.458,2.458,0,0,0,1.676,2.952Z"/><path class="a" d="M270.248,235.849c-1.581,9.882-3.535,19.7-5.187,29.568q-2.229,13.308-3.418,26.728c-.492,5.613-.92,11.231-1.33,16.851a2.4,2.4,0,1,0,4.8,0c.649-8.9,1.278-17.825,2.3-26.7,1.119-9.719,2.893-19.355,4.64-28.977.98-5.392,1.958-10.785,2.823-16.2a2.474,2.474,0,0,0-1.676-2.953,2.418,2.418,0,0,0-2.952,1.676Z"/><path class="a" d="M137.719,185.22q-17.53,7.343-34.369,16.158c-5.578,2.9-11.3,5.713-16.676,8.976-2.685,1.629-5.129,3.579-7.641,5.449a16.871,16.871,0,0,0-4.21,4.781c-3.516,5.665-5.431,12.463-6.438,19a2.476,2.476,0,0,0,1.676,2.952,2.417,2.417,0,0,0,2.952-1.676,50.845,50.845,0,0,1,5.1-16.383,14.028,14.028,0,0,1,3.471-4.634c-.075.059-.319.253.045-.019.28-.21.565-.415.841-.632.513-.4,1.023-.807,1.543-1.2,1.389-1.052,2.811-2.064,4.282-3,5.084-3.229,10.62-5.883,15.952-8.677,5.2-2.726,10.442-5.381,15.736-7.924q9.394-4.512,19.009-8.546a2.48,2.48,0,0,0,1.677-2.952,2.415,2.415,0,0,0-2.953-1.676Z"/><path class="a" d="M199.078,217.61c6.339-6.344,11.257-13.871,15.9-21.5,1.154-1.9,2.3-3.805,3.451-5.7.651-1.071,1.661-2.225,1.292-3.568a13.6,13.6,0,0,0-1.534-2.923,45.423,45.423,0,0,0-8.16-10.4,2.443,2.443,0,0,0-3.394,0,87.31,87.31,0,0,1-21.808,15.954q-1.4.723-2.817,1.391a6.506,6.506,0,0,0-2.772,1.851c-1.2,1.66-.638,3.664.456,5.211,2.34,3.31,5.031,6.4,7.609,9.526,2.794,3.388,5.617,6.754,8.388,10.162a2.417,2.417,0,0,0,3.394,0,2.455,2.455,0,0,0,0-3.394c-2.859-3.517-5.773-6.989-8.655-10.486-1.6-1.941-3.2-3.884-4.763-5.852-.552-.692-1.1-1.385-1.626-2.1-.285-.39-.728-.851-.67-1.305l-.327,1.211-.193.085a4.193,4.193,0,0,1,.482-.256c.3-.148.609-.28.912-.421q.849-.4,1.688-.813,1.811-.9,3.575-1.88,3.735-2.078,7.261-4.5a91.8,91.8,0,0,0,13.26-10.99h-3.394a43.221,43.221,0,0,1,8.7,11.779v-2.423c-5.963,9.719-11.518,19.818-19.645,27.951C193.5,216.4,196.891,219.8,199.078,217.61Z"/><path class="a" d="M159.722,214.216c-8.127-8.133-13.682-18.232-19.645-27.951v2.423a43.2,43.2,0,0,1,8.7-11.779h-3.394a91.8,91.8,0,0,0,13.259,10.99q3.436,2.355,7.074,4.4,1.764.989,3.574,1.892.933.465,1.877.906c.248.116.5.225.748.344a3.941,3.941,0,0,1,.486.244c.223.118.212.12-.033,0l-.328-1.211c.119.918-1.613,2.547-2.17,3.248-1.607,2.021-3.247,4.016-4.888,6.008-2.883,3.5-5.8,6.969-8.655,10.486a2.47,2.47,0,0,0,0,3.394,2.419,2.419,0,0,0,3.394,0c5.12-6.3,10.5-12.4,15.4-18.877a6.5,6.5,0,0,0,1.746-4.073c-.077-2.658-2.794-3.457-4.775-4.431a89.247,89.247,0,0,1-11.572-6.854,84.565,84.565,0,0,1-11.74-9.86,2.445,2.445,0,0,0-3.394,0,45.294,45.294,0,0,0-8.055,10.22,14.257,14.257,0,0,0-1.639,3.1c-.355,1.288.55,2.349,1.176,3.377,1.194,1.962,2.374,3.932,3.567,5.9,4.638,7.629,9.555,15.156,15.9,21.5C158.514,219.8,161.909,216.4,159.722,214.216Z"/><path class="a" d="M198.121,328.422c-6.012-2.179-12.25-3.8-18.423-5.446-4.555-1.217-9.12-2.468-13.743-3.408l-6.749-1.373a2.459,2.459,0,0,0-2.952,1.677,2.423,2.423,0,0,0,1.676,2.952c9.895,2.013,19.644,4.438,29.354,7.231,3.207.922,6.422,1.858,9.561,3a2.422,2.422,0,0,0,2.953-1.676,2.45,2.45,0,0,0-1.677-2.952Z"/><path class="a" d="M206.106,304c-3.222-1.092-6.422-2.242-9.689-3.19l1.434,1.1-7.295-12.635c-2.136-3.7-4.167-7.9-7.941-10.206-3.5-2.142-7.786-2.037-11.745-2.11a69.031,69.031,0,0,0-10.035.606,2.478,2.478,0,0,0-2.4,2.4,2.414,2.414,0,0,0,2.4,2.4,66.746,66.746,0,0,1,9.153-.619c3.019.031,6.458-.256,9.284.973,3.229,1.4,4.874,5.056,6.531,7.926l6.566,11.371c.59,1.021,1.153,2.566,2.2,3.177a17.943,17.943,0,0,0,3.495,1.136c2.267.731,4.511,1.532,6.767,2.3,2.932.994,4.19-3.641,1.276-4.628Z"/><path class="a" d="M195.36,330.154c-8.74,7.252-17.433,14.564-26.248,21.725a8.665,8.665,0,0,1-4.193,2.308,35.964,35.964,0,0,1-6.44-.222l-13.465-.776-26.931-1.551c-5.8-.334-11.593-.678-17.386-1.108a2.4,2.4,0,1,0,0,4.8c14.01,1.038,28.048,1.722,42.073,2.53l13.714.79c4.277.247,9.169,1.241,13.028-1.125a61.936,61.936,0,0,0,6.635-5.236q4.1-3.375,8.181-6.767,7.215-5.982,14.426-11.974a2.418,2.418,0,0,0,0-3.394,2.454,2.454,0,0,0-3.394,0Z"/><path class="a" d="M162.131,336.208q-3.078-17.385-6.078-34.784-3.562-20.538-7.063-41.086-.683-4.025-1.357-8.05c-.36-2.148-.446-4.644-1.207-6.686a6.135,6.135,0,0,0-5.187-4c-.739-.077-1.487-.089-2.228-.126l-5.235-.258q-16.212-.8-32.425-1.582-20.7-1-41.4-1.969-19.146-.893-38.294-1.72-7.11-.3-14.221-.568a7.5,7.5,0,0,0-4.746,1,6.1,6.1,0,0,0-2.655,5.643c.243,2.3.718,4.59,1.086,6.87q3.013,18.683,6.1,37.356,3.38,20.57,6.8,41.133,1.306,7.857,2.625,15.713c.388,2.305.371,5.542,2.453,6.993a6,6,0,0,0,3.323.848l4.174.24,8.1.466,15.712.9c3.086.177,3.075-4.623,0-4.8l-15.712-.9-7.856-.452L22.9,346.16c-.375-.021-.795-.054-1.147-.038.346-.016.2.387.216-.119a14.733,14.733,0,0,0-.47-2.779q-.263-1.555-.523-3.111-.613-3.654-1.223-7.309-3.216-19.269-6.385-38.545-3.212-19.494-6.387-38.994-.621-3.826-1.239-7.652-.275-1.706-.548-3.409-.114-.708-.227-1.414l-.114-.718c-.019-.116-.042-.232-.056-.349-.044-.37-.036.182-.011-.217.129-2.124,3.5-1.3,4.97-1.242q3.383.127,6.764.267,17.847.731,35.689,1.575,20.335.938,40.669,1.92,17.322.832,34.643,1.683l11.486.565a11.623,11.623,0,0,1,1.924.1c1.17.267,1.132,1.53,1.293,2.512q.543,3.3,1.1,6.594,3.213,19.125,6.542,38.229,3.256,18.834,6.557,37.662.537,3.054,1.077,6.109a2.421,2.421,0,0,0,2.953,1.676,2.453,2.453,0,0,0,1.676-2.952Z"/><path class="a" d="M80.773,290.337c.119,0,.736.088.117-.015.158.027.314.056.47.092a7.866,7.866,0,0,1,1.02.316c-.088-.033-.425-.21-.03,0,.177.093.355.181.528.281.115.067.23.137.342.21s.225.149.334.228q-.321-.261,0,0a9.866,9.866,0,0,1,.746.7c.118.125.223.262.342.385.263.274-.28-.45.065.087.187.292.377.578.539.886.035.067.3.69.1.184.075.2.145.393.205.594s.1.409.155.614c.11.441.029.1.015-.006a6.732,6.732,0,0,1,.034,1.2c-.007.136-.069.618.012.086q-.036.24-.09.477c-.034.151-.073.3-.118.449-.035.114-.073.226-.115.338q.186-.417.075-.176c-.163.242-.3.528-.453.781.034-.057.359-.4.082-.112-.108.113-.209.23-.323.338.019-.018-.225.21-.23.206s.463-.318-.007-.006a6.39,6.39,0,0,1-.813.45c-.013-.024.541-.188.065-.033-.125.041-.248.088-.374.127-.256.079-.515.144-.776.2a3.317,3.317,0,0,1-.478.087s.538-.055.154-.021c-.327.029-.652.058-.98.067a14.213,14.213,0,0,1-1.775-.064c-.1-.01-.209-.023-.313-.033-.554-.056.564.106.026,0a8.972,8.972,0,0,1-1.12-.264c-.126-.042-.251-.087-.373-.137.531.214-.063-.051-.143-.094-.145-.079-.281-.172-.424-.252-.109-.062-.468-.335-.075-.027a6.544,6.544,0,0,1-.725-.668c-.057-.061-.467-.568-.133-.122-.119-.158-.23-.324-.334-.493s-.2-.349-.293-.524c-.212-.384-.042-.071,0,.022a6.911,6.911,0,0,1-.325-1.073c-.028-.132-.08-.588-.03-.081-.017-.176-.03-.351-.035-.528s0-.359,0-.538c.007-.146.018-.292.034-.438q-.048.349,0,.085c.052-.177.074-.365.123-.543.02-.074.265-.76.153-.5-.139.328.14-.26.14-.26.108-.2.268-.383.366-.585.145-.3-.357.355.047-.049.159-.16.307-.328.473-.482.118-.108.239-.213.365-.313-.447.355.119-.058.221-.121q.2-.127.415-.241c.06-.032.711-.335.406-.207-.345.145.238-.082.249-.086q.315-.108.638-.192c.152-.04.305-.076.46-.108.122-.025.245-.047.369-.067q-.45.054-.177.024c.392,0,.783-.055,1.178-.046a2.4,2.4,0,0,0,0-4.8,10.019,10.019,0,0,0-9.7,6.064,9.35,9.35,0,0,0,3.936,11.144,11.172,11.172,0,0,0,5.32,1.382,12.49,12.49,0,0,0,4.713-.591,8.24,8.24,0,0,0,4.259-3.209,8.587,8.587,0,0,0,1.193-5.654,10.5,10.5,0,0,0-9.722-9.136,2.416,2.416,0,0,0-2.4,2.4A2.453,2.453,0,0,0,80.773,290.337Z"/><path class="a" d="M281.78,224.434a32.3,32.3,0,0,1,3.3,6.015q.5,1.083.977,2.176.256.587.508,1.176c.066.152.239.561.077.178.109.257.216.515.323.772q1.134,2.727,2.195,5.482c3.535,9.12,6.7,18.385,9.72,27.687,3.059,9.437,5.957,18.932,8.548,28.509,1.023,3.78,2,7.574,2.847,11.4.323,1.457.626,2.918.885,4.387.11.624.2,1.251.3,1.877.027.169-.069-.609-.019-.139.013.119.029.237.043.356.09.776.164,1.554.237,2.331a117.069,117.069,0,0,1,.036,21.1,28.481,28.481,0,0,1-1.877,8.811,17.732,17.732,0,0,1-3.554,5.406,19.9,19.9,0,0,1-10.19,5.411c-1.026.243-2.064.433-3.107.586-.284.041.015,0,.061-.007-.115.015-.231.03-.346.043-.231.027-.461.054-.692.078q-.8.084-1.607.138c-1.951.135-3.908.151-5.861.092-3.031-.091-6.041-.434-9.067-.59-1-.052-1.992-.111-2.988-.224-.3-.034-.605-.073-.907-.11-.334-.04-.3-.041.043.007l-.62-.087q-1.1-.156-2.19-.336c-8.275-1.342-16.478-3.177-24.641-5.07-9.391-2.177-18.748-4.518-28.034-7.106-3.794-1.057-7.579-2.154-11.327-3.364-1.453-.469-2.9-.955-4.334-1.482q-.855-.313-1.7-.653c-.135-.054-.269-.112-.405-.166-.154-.061.548.248.139.057-.228-.106-.46-.2-.686-.31-.332-.157-.663-.32-.979-.508-.118-.07-.231-.158-.352-.221-.475-.249.484.42.141.1l.617,2.335c3.421-11.712,7.334-23.284,10.874-34.961.722-2.381,1.468-4.762,2.083-7.173l-2.953,1.676c7.911,1.9,15.866,3.623,23.8,5.419,8.828,2,17.679,3.942,26.451,6.178.7.179,1.4.383,2.1.552a46.112,46.112,0,0,0,5.762.669c4.153.449,8.307.938,12.481,1.148,3.087.154,3.079-4.646,0-4.8-3.631-.182-7.248-.581-10.861-.972a51.506,51.506,0,0,1-7.467-1.035c-3.657-.95-7.339-1.807-11.019-2.665-9.589-2.237-19.2-4.385-28.8-6.557-3.726-.843-7.456-1.674-11.171-2.566a2.439,2.439,0,0,0-2.952,1.677c-1.346,5.282-3.085,10.482-4.7,15.686-2.077,6.681-4.183,13.353-6.274,20.03-.668,2.136-1.353,4.269-1.98,6.418a2.383,2.383,0,0,0,.617,2.335c1.521,1.4,3.717,2.1,5.611,2.8,3.181,1.189,6.434,2.189,9.688,3.158,9.049,2.694,18.2,5.047,27.378,7.269,9,2.181,18.047,4.25,27.156,5.943a155.177,155.177,0,0,0,16.939,2.043c8.129.607,16.829.521,24.2-3.405a22.084,22.084,0,0,0,9.592-10.081c2.981-6.385,3.093-13.793,3.182-20.726a97.765,97.765,0,0,0-1.1-16.895c-.525-3.229-1.274-6.423-2.055-9.6-2.271-9.226-4.971-18.351-7.8-27.421-3.08-9.9-6.348-19.737-9.915-29.467-2.578-7.029-5.133-14.275-8.742-20.858a19.2,19.2,0,0,0-1.493-2.384,2.477,2.477,0,0,0-3.284-.861,2.417,2.417,0,0,0-.861,3.284Z"/><path class="a" d="M102.369,352.767c-.758-1.892-1.161-3.877-1.75-5.824a57.57,57.57,0,0,0-2.361-6.4,18.7,18.7,0,0,0-3.026-5.049,7.827,7.827,0,0,0-5.442-2.41,6.316,6.316,0,0,0-6.324,4.118,2.416,2.416,0,0,0,1.676,2.952,2.46,2.46,0,0,0,2.953-1.676c-.241.591.448-.54-.008,0,.115-.136.688-.538.213-.253.064-.039.682-.352.369-.224s.36-.084.426-.1q.408-.074-.075,0c.127-.012.255-.019.383-.021s.958.078.329-.019a5.988,5.988,0,0,1,1.308.356c-.562-.224.167.12.273.18.432.246.173-.007-.009-.033.12.017.346.323.428.409s.542.674.156.153a17.12,17.12,0,0,1,1.5,2.487,39.743,39.743,0,0,1,2.4,6.153c.68,2.156,1.112,4.381,1.954,6.482a2.475,2.475,0,0,0,2.952,1.677,2.418,2.418,0,0,0,1.677-2.953Z"/><path class="a" d="M90.462,348.83c-1.03-4.177-2.081-8.348-3.083-12.532-1-4.158-1.846-8.4-3.525-12.355-1.292-3.042-3.753-6.757-7.185-7.556a7.378,7.378,0,0,0-8.76,5.818,2.478,2.478,0,0,0,1.677,2.952,2.418,2.418,0,0,0,2.952-1.676,2.554,2.554,0,0,1,1.812-2.318,1.915,1.915,0,0,1,2.255.531,11.221,11.221,0,0,1,2.385,3.167,8.552,8.552,0,0,1,.725,1.577q.438,1.165.8,2.355c1.1,3.559,1.851,7.223,2.729,10.84.85,3.494,1.725,6.982,2.586,10.473.739,3,5.369,1.728,4.629-1.276Z"/><path class="a" d="M77.871,347.489c-2.052-8.51-3.926-17.063-5.878-25.6-.889-3.89-1.54-7.882-4.085-11.1-2.662-3.367-6.946-5.233-11.033-3.379-4.886,2.216-4.136,8.277-3.5,12.633a2.416,2.416,0,0,0,2.952,1.676,2.461,2.461,0,0,0,1.676-2.952,28.558,28.558,0,0,1-.306-3.225,8.894,8.894,0,0,1,.14-2.349q.072-.261.149-.52c.11-.367-.269.452.027-.072.107-.191.474-.66.133-.278.1-.111.2-.216.31-.318.253-.241-.487.282.008-.01.16-.1.934-.467.443-.273.293-.116.6-.2.9-.284.14-.04.576-.054.1-.028a2.957,2.957,0,0,1,.441-.008c.475.047.142-.008.042-.021a4.813,4.813,0,0,1,.579.124,2.69,2.69,0,0,1,.952.366,8.353,8.353,0,0,1,3.46,3.846c1.248,2.607,1.62,5.856,2.259,8.657q1.35,5.924,2.692,11.849c.953,4.183,1.9,8.367,2.909,12.538.724,3,5.354,1.731,4.629-1.276Z"/><path class="a" d="M49.1,353.85a12.824,12.824,0,0,0,5.372,6.047,20.155,20.155,0,0,0,6.815,2.058c2.006.321,4.005.7,6,1.1,1.766.358,3.5.911,5.255,1.262,3.843.765,7.9.421,11.794.456,4.117.037,8.26.155,12.372-.094a16.247,16.247,0,0,0,13.621-9.976,2.419,2.419,0,0,0-1.676-2.953,2.457,2.457,0,0,0-2.953,1.677,11.319,11.319,0,0,1-4.772,5.024,10.21,10.21,0,0,1-2.986,1.286c-.179.042-.358.067-.536.106.653-.145.384-.04.213-.034-.373.012-.748.061-1.121.082-3.831.21-7.685.123-11.52.088-3.525-.032-7.08.142-10.591-.209-.52-.052-.238-.024-.121-.007-.218-.032-.438-.067-.652-.117-.276-.063-.539-.155-.81-.235-.817-.244-1.649-.431-2.481-.614-2.054-.452-4.123-.844-6.2-1.209A32.288,32.288,0,0,1,58,356.278a8.568,8.568,0,0,1-4.756-4.851,2.417,2.417,0,0,0-3.283-.861,2.46,2.46,0,0,0-.861,3.284Z"/><path class="a" d="M64.748,345.189c-1.247-4.385-2.307-8.823-3.38-13.252q-.77-3.171-1.528-6.344a34.258,34.258,0,0,0-1.2-4.515,8.4,8.4,0,0,0-5.135-5.241,6.853,6.853,0,0,0-7.664,2.754c-1.666,2.342-1.881,5.35-1.741,8.129a60.34,60.34,0,0,0,1.282,8.949c.582,2.861,1.136,5.706,1.586,8.591a54.043,54.043,0,0,0,1.891,9.017c.983,2.911,5.621,1.662,4.628-1.276-1.531-4.532-1.807-9.39-2.731-14.059-.473-2.39-1.027-4.761-1.414-7.169a24.105,24.105,0,0,1-.388-7.241c.235-1.535,1.137-3.539,2.973-3.16,1.43.295,2.14,1.926,2.479,3.209.83,3.137,1.528,6.314,2.292,9.468,1.086,4.484,2.158,8.977,3.419,13.416.844,2.966,5.476,1.705,4.629-1.276Z"/><path class="a" d="M99.886,355.671c2.682.448,5.42.581,8.128.8a2.417,2.417,0,0,0,1.7-.7,2.4,2.4,0,0,0-1.7-4.1c-2.316-.185-4.642-.323-6.946-.63l.638.086q-.273-.038-.544-.082a2.605,2.605,0,0,0-1.849.242,2.4,2.4,0,0,0-.861,3.284,2.334,2.334,0,0,0,1.434,1.1Z"/></svg>